<?xml version="1.0" encoding="utf-8"?>
<!-- Generator: Adobe Illustrator 16.0.0, SVG Export Plug-In . SVG Version: 6.00 Build 0)  -->
<!DOCTYPE svg PUBLIC "-//W3C//DTD SVG 1.1//EN" "http://www.w3.org/Graphics/SVG/1.1/DTD/svg11.dtd">
<svg version="1.1" id="Capa_1" xmlns="http://www.w3.org/2000/svg" xmlns:xlink="http://www.w3.org/1999/xlink" x="0px" y="0px"
	 width="20px" height="20px" viewBox="0 0 20 20" enable-background="new 0 0 20 20" xml:space="preserve">
<g>
	
		<linearGradient id="SVGID_1_" gradientUnits="userSpaceOnUse" x1="202.9575" y1="417.7705" x2="222.9575" y2="417.7705" gradientTransform="matrix(0 1 -1 0 427.7705 -202.2295)">
		<stop  offset="0" style="stop-color:#5B5B5F"/>
		<stop  offset="1" style="stop-color:#141414"/>
	</linearGradient>
	<circle fill="url(#SVGID_1_)" cx="10" cy="10" r="10"/>
	<linearGradient id="SVGID_2_" gradientUnits="userSpaceOnUse" x1="10" y1="0" x2="10" y2="20">
		<stop  offset="0" style="stop-color:#5B5B5F"/>
		<stop  offset="0.2775" style="stop-color:#464649"/>
		<stop  offset="0.8541" style="stop-color:#0F0F10"/>
		<stop  offset="1" style="stop-color:#000000"/>
	</linearGradient>
	<path fill="url(#SVGID_2_)" d="M10,1.666c4.596,0,8.335,3.739,8.335,8.334S14.596,18.334,10,18.334
		c-4.596,0-8.335-3.739-8.335-8.334S5.404,1.666,10,1.666 M10,0C4.477,0,0,4.477,0,10c0,5.522,4.477,10,10,10s10-4.478,10-10
		S15.523,0,10,0L10,0z"/>
</g>
<g>
	<g>
		<path fill="#FFFFFF" d="M11.633,14.656v-2.398c0-0.448-0.103-0.769-0.307-0.96c-0.206-0.192-0.589-0.288-1.15-0.288H8.1v3.646
			H6.207V5.345h4.726c0.43,0,0.821,0.068,1.17,0.203c0.351,0.136,0.652,0.324,0.905,0.562c0.252,0.238,0.447,0.524,0.582,0.855
			c0.135,0.332,0.203,0.689,0.203,1.073c0,0.504-0.119,0.951-0.356,1.338c-0.239,0.389-0.583,0.662-1.031,0.821
			c0.411,0.131,0.704,0.331,0.877,0.602c0.173,0.272,0.259,0.678,0.259,1.221v2.636H11.633z M8.1,6.958v2.482h2.439
			c0.524,0,0.893-0.116,1.108-0.351c0.215-0.233,0.323-0.528,0.323-0.883c0-0.365-0.106-0.664-0.316-0.898
			c-0.21-0.233-0.558-0.35-1.044-0.35H8.1z"/>
		<path fill="#FFFFFF" d="M13.758,14.873h-2.341v-2.615c0-0.383-0.081-0.653-0.24-0.801c-0.113-0.105-0.377-0.23-1.002-0.23H8.317
			v3.646H5.99V5.128h4.943c0.455,0,0.875,0.074,1.249,0.217c0.375,0.145,0.704,0.35,0.975,0.605
			c0.274,0.258,0.488,0.572,0.634,0.931c0.146,0.357,0.22,0.746,0.22,1.156c0,0.542-0.131,1.032-0.39,1.452
			c-0.177,0.29-0.409,0.522-0.692,0.698c0.23,0.132,0.411,0.298,0.536,0.496c0.198,0.31,0.294,0.748,0.294,1.337V14.873z
			 M11.85,14.439h1.475V12.02c0-0.498-0.076-0.869-0.226-1.104c-0.145-0.226-0.399-0.398-0.76-0.512l-0.615-0.196l0.608-0.215
			c0.404-0.143,0.705-0.382,0.918-0.729c0.216-0.351,0.326-0.765,0.326-1.225c0-0.354-0.063-0.687-0.188-0.992
			c-0.124-0.301-0.301-0.564-0.529-0.779c-0.231-0.218-0.512-0.392-0.834-0.517c-0.325-0.124-0.691-0.188-1.092-0.188H6.423v8.878
			h1.46v-3.646h2.292c0.624,0,1.048,0.113,1.298,0.346c0.25,0.233,0.376,0.61,0.376,1.119V14.439z M10.54,9.656H7.883V6.741h2.727
			c0.548,0,0.954,0.141,1.206,0.422c0.246,0.273,0.371,0.625,0.371,1.042c0,0.409-0.127,0.756-0.379,1.03
			C11.551,9.515,11.124,9.656,10.54,9.656z M8.317,9.222h2.223c0.458,0,0.777-0.094,0.949-0.28c0.178-0.194,0.265-0.436,0.265-0.736
			c0-0.313-0.085-0.559-0.26-0.753c-0.167-0.184-0.463-0.278-0.883-0.278H8.317V9.222z"/>
	</g>
</g>
</svg>
