<?xml version="1.0" encoding="utf-8"?>
<!-- Generator: Adobe Illustrator 16.0.0, SVG Export Plug-In . SVG Version: 6.00 Build 0)  -->
<!DOCTYPE svg PUBLIC "-//W3C//DTD SVG 1.1//EN" "http://www.w3.org/Graphics/SVG/1.1/DTD/svg11.dtd">
<svg version="1.1" id="Capa_1" xmlns="http://www.w3.org/2000/svg" xmlns:xlink="http://www.w3.org/1999/xlink" x="0px" y="0px"
	 width="29.999px" height="19.14px" viewBox="0 0 29.999 19.14" enable-background="new 0 0 29.999 19.14" xml:space="preserve">
<g>
	<g>
		<linearGradient id="SVGID_1_" gradientUnits="userSpaceOnUse" x1="15" y1="0" x2="15" y2="19.1406">
			<stop  offset="0" style="stop-color:#5B5B5F"/>
			<stop  offset="1" style="stop-color:#141414"/>
		</linearGradient>
		<path fill="url(#SVGID_1_)" d="M29.999,15.708c0,2.275-1.158,3.433-3.434,3.433H3.434C1.157,19.14,0,17.983,0,15.708V3.433
			C0,1.158,1.157,0,3.434,0h23.132c2.275,0,3.434,1.158,3.434,3.433V15.708z"/>
		<linearGradient id="SVGID_2_" gradientUnits="userSpaceOnUse" x1="15" y1="0" x2="15" y2="19.1406">
			<stop  offset="0" style="stop-color:#5B5B5F"/>
			<stop  offset="0.0231" style="stop-color:#59595D"/>
			<stop  offset="0.4507" style="stop-color:#333335"/>
			<stop  offset="0.7912" style="stop-color:#1C1C1D"/>
			<stop  offset="1" style="stop-color:#141414"/>
		</linearGradient>
		<path fill="url(#SVGID_2_)" d="M26.565,1.03c1.707,0,2.403,0.697,2.403,2.403v12.274c0,1.707-0.696,2.403-2.403,2.403H3.434
			c-1.708,0-2.403-0.696-2.403-2.403V3.433c0-1.707,0.695-2.403,2.403-2.403H26.565 M26.565,0H3.434C1.157,0,0,1.158,0,3.433v12.274
			c0,2.275,1.157,3.433,3.434,3.433h23.132c2.275,0,3.434-1.157,3.434-3.433V3.433C29.999,1.158,28.841,0,26.565,0L26.565,0z"/>
	</g>
	<g>
		<rect x="2.06" y="2.06" fill="#161616" width="0.516" height="0.515"/>
		<rect x="3.552" y="2.06" fill="#161616" width="0.516" height="0.515"/>
		<rect x="5.044" y="2.06" fill="#161616" width="0.516" height="0.515"/>
		<rect x="6.536" y="2.06" fill="#161616" width="0.515" height="0.515"/>
		<rect x="8.028" y="2.06" fill="#161616" width="0.515" height="0.515"/>
		<rect x="9.521" y="2.06" fill="#161616" width="0.515" height="0.515"/>
		<rect x="11.013" y="2.06" fill="#161616" width="0.515" height="0.515"/>
		<rect x="12.504" y="2.06" fill="#161616" width="0.515" height="0.515"/>
		<rect x="13.996" y="2.06" fill="#161616" width="0.515" height="0.515"/>
		<rect x="15.488" y="2.06" fill="#161616" width="0.515" height="0.515"/>
		<rect x="16.98" y="2.06" fill="#161616" width="0.515" height="0.515"/>
		<rect x="18.472" y="2.06" fill="#161616" width="0.515" height="0.515"/>
		<rect x="19.964" y="2.06" fill="#161616" width="0.515" height="0.515"/>
		<rect x="21.456" y="2.06" fill="#161616" width="0.515" height="0.515"/>
		<rect x="22.948" y="2.06" fill="#161616" width="0.515" height="0.515"/>
		<rect x="24.439" y="2.06" fill="#161616" width="0.516" height="0.515"/>
		<rect x="25.932" y="2.06" fill="#161616" width="0.516" height="0.515"/>
		<rect x="27.424" y="2.06" fill="#161616" width="0.515" height="0.515"/>
		<rect x="2.056" y="3.51" fill="#161616" width="0.515" height="0.515"/>
		<rect x="3.548" y="3.51" fill="#161616" width="0.515" height="0.515"/>
		<rect x="5.039" y="3.51" fill="#161616" width="0.516" height="0.515"/>
		<rect x="6.531" y="3.51" fill="#161616" width="0.516" height="0.515"/>
		<rect x="8.023" y="3.51" fill="#161616" width="0.515" height="0.515"/>
		<rect x="9.516" y="3.51" fill="#161616" width="0.515" height="0.515"/>
		<rect x="11.008" y="3.51" fill="#161616" width="0.515" height="0.515"/>
		<rect x="12.5" y="3.51" fill="#161616" width="0.515" height="0.515"/>
		<rect x="13.991" y="3.51" fill="#161616" width="0.516" height="0.515"/>
		<rect x="15.483" y="3.51" fill="#161616" width="0.516" height="0.515"/>
		<rect x="16.976" y="3.51" fill="#161616" width="0.516" height="0.515"/>
		<rect x="18.468" y="3.51" fill="#161616" width="0.515" height="0.515"/>
		<rect x="19.959" y="3.51" fill="#161616" width="0.516" height="0.515"/>
		<rect x="21.451" y="3.51" fill="#161616" width="0.516" height="0.515"/>
		<rect x="22.943" y="3.51" fill="#161616" width="0.515" height="0.515"/>
		<rect x="24.436" y="3.51" fill="#161616" width="0.515" height="0.515"/>
		<rect x="25.927" y="3.51" fill="#161616" width="0.516" height="0.515"/>
		<rect x="27.419" y="3.51" fill="#161616" width="0.516" height="0.515"/>
		<rect x="2.06" y="4.961" fill="#161616" width="0.516" height="0.515"/>
		<rect x="3.552" y="4.961" fill="#161616" width="0.516" height="0.515"/>
		<rect x="5.044" y="4.961" fill="#161616" width="0.516" height="0.515"/>
		<rect x="6.536" y="4.961" fill="#161616" width="0.515" height="0.515"/>
		<rect x="8.028" y="4.961" fill="#161616" width="0.515" height="0.515"/>
		<rect x="9.521" y="4.961" fill="#161616" width="0.515" height="0.515"/>
		<rect x="11.013" y="4.961" fill="#161616" width="0.515" height="0.515"/>
		<rect x="12.504" y="4.961" fill="#161616" width="0.515" height="0.515"/>
		<rect x="13.996" y="4.961" fill="#161616" width="0.515" height="0.515"/>
		<rect x="15.488" y="4.961" fill="#161616" width="0.515" height="0.515"/>
		<rect x="16.98" y="4.961" fill="#161616" width="0.515" height="0.515"/>
		<rect x="18.472" y="4.961" fill="#161616" width="0.515" height="0.515"/>
		<rect x="19.964" y="4.961" fill="#161616" width="0.515" height="0.515"/>
		<rect x="21.456" y="4.961" fill="#161616" width="0.515" height="0.515"/>
		<rect x="22.948" y="4.961" fill="#161616" width="0.515" height="0.515"/>
		<rect x="24.439" y="4.961" fill="#161616" width="0.516" height="0.515"/>
		<rect x="25.932" y="4.961" fill="#161616" width="0.516" height="0.515"/>
		<rect x="27.424" y="4.961" fill="#161616" width="0.515" height="0.515"/>
		<rect x="2.06" y="6.412" fill="#161616" width="0.516" height="0.515"/>
		<rect x="3.552" y="6.412" fill="#161616" width="0.516" height="0.515"/>
		<rect x="5.044" y="6.412" fill="#161616" width="0.516" height="0.515"/>
		<rect x="6.536" y="6.412" fill="#161616" width="0.515" height="0.515"/>
		<rect x="8.028" y="6.412" fill="#161616" width="0.515" height="0.515"/>
		<rect x="9.521" y="6.412" fill="#161616" width="0.515" height="0.515"/>
		<rect x="11.013" y="6.412" fill="#161616" width="0.515" height="0.515"/>
		<rect x="12.504" y="6.412" fill="#161616" width="0.515" height="0.515"/>
		<rect x="13.996" y="6.412" fill="#161616" width="0.515" height="0.515"/>
		<rect x="15.488" y="6.412" fill="#161616" width="0.515" height="0.515"/>
		<rect x="16.98" y="6.412" fill="#161616" width="0.515" height="0.515"/>
		<rect x="18.472" y="6.412" fill="#161616" width="0.515" height="0.515"/>
		<rect x="19.964" y="6.412" fill="#161616" width="0.515" height="0.515"/>
		<rect x="21.456" y="6.412" fill="#161616" width="0.515" height="0.515"/>
		<rect x="22.948" y="6.412" fill="#161616" width="0.515" height="0.515"/>
		<rect x="24.439" y="6.412" fill="#161616" width="0.516" height="0.515"/>
		<rect x="25.932" y="6.412" fill="#161616" width="0.516" height="0.515"/>
		<rect x="27.424" y="6.412" fill="#161616" width="0.515" height="0.515"/>
		<rect x="2.06" y="7.862" fill="#161616" width="0.516" height="0.515"/>
		<rect x="3.552" y="7.862" fill="#161616" width="0.516" height="0.515"/>
		<rect x="5.044" y="7.862" fill="#161616" width="0.516" height="0.515"/>
		<rect x="6.536" y="7.862" fill="#161616" width="0.515" height="0.515"/>
		<rect x="8.028" y="7.862" fill="#161616" width="0.515" height="0.515"/>
		<rect x="9.521" y="7.862" fill="#161616" width="0.515" height="0.515"/>
		<rect x="11.013" y="7.862" fill="#161616" width="0.515" height="0.515"/>
		<rect x="12.504" y="7.862" fill="#161616" width="0.515" height="0.515"/>
		<rect x="13.996" y="7.862" fill="#161616" width="0.515" height="0.515"/>
		<rect x="15.488" y="7.862" fill="#161616" width="0.515" height="0.515"/>
		<rect x="16.98" y="7.862" fill="#161616" width="0.515" height="0.515"/>
		<rect x="18.472" y="7.862" fill="#161616" width="0.515" height="0.515"/>
		<rect x="19.964" y="7.862" fill="#161616" width="0.515" height="0.515"/>
		<rect x="21.456" y="7.862" fill="#161616" width="0.515" height="0.515"/>
		<rect x="22.948" y="7.862" fill="#161616" width="0.515" height="0.515"/>
		<rect x="24.439" y="7.862" fill="#161616" width="0.516" height="0.515"/>
		<rect x="25.932" y="7.862" fill="#161616" width="0.516" height="0.515"/>
		<rect x="27.424" y="7.862" fill="#161616" width="0.515" height="0.515"/>
		<rect x="2.056" y="9.313" fill="#161616" width="0.515" height="0.515"/>
		<rect x="3.548" y="9.313" fill="#161616" width="0.515" height="0.515"/>
		<rect x="5.039" y="9.313" fill="#161616" width="0.516" height="0.515"/>
		<rect x="6.531" y="9.313" fill="#161616" width="0.516" height="0.515"/>
		<rect x="8.023" y="9.313" fill="#161616" width="0.515" height="0.515"/>
		<rect x="9.516" y="9.313" fill="#161616" width="0.515" height="0.515"/>
		<rect x="11.008" y="9.313" fill="#161616" width="0.515" height="0.515"/>
		<rect x="12.5" y="9.313" fill="#161616" width="0.515" height="0.515"/>
		<rect x="13.991" y="9.313" fill="#161616" width="0.516" height="0.515"/>
		<rect x="15.483" y="9.313" fill="#161616" width="0.516" height="0.515"/>
		<rect x="16.976" y="9.313" fill="#161616" width="0.516" height="0.515"/>
		<rect x="18.468" y="9.313" fill="#161616" width="0.515" height="0.515"/>
		<rect x="19.959" y="9.313" fill="#161616" width="0.516" height="0.515"/>
		<rect x="21.451" y="9.313" fill="#161616" width="0.516" height="0.515"/>
		<rect x="22.943" y="9.313" fill="#161616" width="0.515" height="0.515"/>
		<rect x="24.436" y="9.313" fill="#161616" width="0.515" height="0.515"/>
		<rect x="25.927" y="9.313" fill="#161616" width="0.516" height="0.515"/>
		<rect x="27.419" y="9.313" fill="#161616" width="0.516" height="0.515"/>
		<rect x="2.06" y="10.763" fill="#161616" width="0.516" height="0.516"/>
		<rect x="3.552" y="10.763" fill="#161616" width="0.516" height="0.516"/>
		<rect x="5.044" y="10.763" fill="#161616" width="0.516" height="0.516"/>
		<rect x="6.536" y="10.763" fill="#161616" width="0.515" height="0.516"/>
		<rect x="8.028" y="10.763" fill="#161616" width="0.515" height="0.516"/>
		<rect x="9.521" y="10.763" fill="#161616" width="0.515" height="0.516"/>
		<rect x="11.013" y="10.763" fill="#161616" width="0.515" height="0.516"/>
		<rect x="12.504" y="10.763" fill="#161616" width="0.515" height="0.516"/>
		<rect x="13.996" y="10.763" fill="#161616" width="0.515" height="0.516"/>
		<rect x="15.488" y="10.763" fill="#161616" width="0.515" height="0.516"/>
		<rect x="16.98" y="10.763" fill="#161616" width="0.515" height="0.516"/>
		<rect x="18.472" y="10.763" fill="#161616" width="0.515" height="0.516"/>
		<rect x="19.964" y="10.763" fill="#161616" width="0.515" height="0.516"/>
		<rect x="21.456" y="10.763" fill="#161616" width="0.515" height="0.516"/>
		<rect x="22.948" y="10.763" fill="#161616" width="0.515" height="0.516"/>
		<rect x="24.439" y="10.763" fill="#161616" width="0.516" height="0.516"/>
		<rect x="25.932" y="10.763" fill="#161616" width="0.516" height="0.516"/>
		<rect x="27.424" y="10.763" fill="#161616" width="0.515" height="0.516"/>
		<rect x="2.056" y="12.214" fill="#161616" width="0.515" height="0.516"/>
		<rect x="3.548" y="12.214" fill="#161616" width="0.515" height="0.516"/>
		<rect x="5.039" y="12.214" fill="#161616" width="0.516" height="0.516"/>
		<rect x="6.531" y="12.214" fill="#161616" width="0.516" height="0.516"/>
		<rect x="8.023" y="12.214" fill="#161616" width="0.515" height="0.516"/>
		<rect x="9.516" y="12.214" fill="#161616" width="0.515" height="0.516"/>
		<rect x="11.008" y="12.214" fill="#161616" width="0.515" height="0.516"/>
		<rect x="12.5" y="12.214" fill="#161616" width="0.515" height="0.516"/>
		<rect x="13.991" y="12.214" fill="#161616" width="0.516" height="0.516"/>
		<rect x="15.483" y="12.214" fill="#161616" width="0.516" height="0.516"/>
		<rect x="16.976" y="12.214" fill="#161616" width="0.516" height="0.516"/>
		<rect x="18.468" y="12.214" fill="#161616" width="0.515" height="0.516"/>
		<rect x="19.959" y="12.214" fill="#161616" width="0.516" height="0.516"/>
		<rect x="21.451" y="12.214" fill="#161616" width="0.516" height="0.516"/>
		<rect x="22.943" y="12.214" fill="#161616" width="0.515" height="0.516"/>
		<rect x="24.436" y="12.214" fill="#161616" width="0.515" height="0.516"/>
		<rect x="25.927" y="12.214" fill="#161616" width="0.516" height="0.516"/>
		<rect x="27.419" y="12.214" fill="#161616" width="0.516" height="0.516"/>
		<rect x="2.06" y="13.666" fill="#161616" width="0.516" height="0.514"/>
		<rect x="3.552" y="13.666" fill="#161616" width="0.516" height="0.514"/>
		<rect x="5.044" y="13.666" fill="#161616" width="0.516" height="0.514"/>
		<rect x="6.536" y="13.666" fill="#161616" width="0.515" height="0.514"/>
		<rect x="8.028" y="13.666" fill="#161616" width="0.515" height="0.514"/>
		<rect x="9.521" y="13.666" fill="#161616" width="0.515" height="0.514"/>
		<rect x="11.013" y="13.666" fill="#161616" width="0.515" height="0.514"/>
		<rect x="12.504" y="13.666" fill="#161616" width="0.515" height="0.514"/>
		<rect x="13.996" y="13.666" fill="#161616" width="0.515" height="0.514"/>
		<rect x="15.488" y="13.666" fill="#161616" width="0.515" height="0.514"/>
		<rect x="16.98" y="13.666" fill="#161616" width="0.515" height="0.514"/>
		<rect x="18.472" y="13.666" fill="#161616" width="0.515" height="0.514"/>
		<rect x="19.964" y="13.666" fill="#161616" width="0.515" height="0.514"/>
		<rect x="21.456" y="13.666" fill="#161616" width="0.515" height="0.514"/>
		<rect x="22.948" y="13.666" fill="#161616" width="0.515" height="0.514"/>
		<rect x="24.439" y="13.666" fill="#161616" width="0.516" height="0.514"/>
		<rect x="25.932" y="13.666" fill="#161616" width="0.516" height="0.514"/>
		<rect x="27.424" y="13.666" fill="#161616" width="0.515" height="0.514"/>
		<rect x="2.056" y="15.115" fill="#161616" width="0.515" height="0.516"/>
		<rect x="3.548" y="15.115" fill="#161616" width="0.515" height="0.516"/>
		<rect x="5.039" y="15.115" fill="#161616" width="0.516" height="0.516"/>
		<rect x="6.531" y="15.115" fill="#161616" width="0.516" height="0.516"/>
		<rect x="8.023" y="15.115" fill="#161616" width="0.515" height="0.516"/>
		<rect x="9.516" y="15.115" fill="#161616" width="0.515" height="0.516"/>
		<rect x="11.008" y="15.115" fill="#161616" width="0.515" height="0.516"/>
		<rect x="12.5" y="15.115" fill="#161616" width="0.515" height="0.516"/>
		<rect x="13.991" y="15.115" fill="#161616" width="0.516" height="0.516"/>
		<rect x="15.483" y="15.115" fill="#161616" width="0.516" height="0.516"/>
		<rect x="16.976" y="15.115" fill="#161616" width="0.516" height="0.516"/>
		<rect x="18.468" y="15.115" fill="#161616" width="0.515" height="0.516"/>
		<rect x="19.959" y="15.115" fill="#161616" width="0.516" height="0.516"/>
		<rect x="21.451" y="15.115" fill="#161616" width="0.516" height="0.516"/>
		<rect x="22.943" y="15.115" fill="#161616" width="0.515" height="0.516"/>
		<rect x="24.436" y="15.115" fill="#161616" width="0.515" height="0.516"/>
		<rect x="25.927" y="15.115" fill="#161616" width="0.516" height="0.516"/>
		<rect x="27.419" y="15.115" fill="#161616" width="0.516" height="0.516"/>
		<rect x="2.06" y="16.566" fill="#161616" width="0.516" height="0.515"/>
		<rect x="3.552" y="16.566" fill="#161616" width="0.516" height="0.515"/>
		<rect x="5.044" y="16.566" fill="#161616" width="0.516" height="0.515"/>
		<rect x="6.536" y="16.566" fill="#161616" width="0.515" height="0.515"/>
		<rect x="8.028" y="16.566" fill="#161616" width="0.515" height="0.515"/>
		<rect x="9.521" y="16.566" fill="#161616" width="0.515" height="0.515"/>
		<rect x="11.013" y="16.566" fill="#161616" width="0.515" height="0.515"/>
		<rect x="12.504" y="16.566" fill="#161616" width="0.515" height="0.515"/>
		<rect x="13.996" y="16.566" fill="#161616" width="0.515" height="0.515"/>
		<rect x="15.488" y="16.566" fill="#161616" width="0.515" height="0.515"/>
		<rect x="16.98" y="16.566" fill="#161616" width="0.515" height="0.515"/>
		<rect x="18.472" y="16.566" fill="#161616" width="0.515" height="0.515"/>
		<rect x="19.964" y="16.566" fill="#161616" width="0.515" height="0.515"/>
		<rect x="21.456" y="16.566" fill="#161616" width="0.515" height="0.515"/>
		<rect x="22.948" y="16.566" fill="#161616" width="0.515" height="0.515"/>
		<rect x="24.439" y="16.566" fill="#161616" width="0.516" height="0.515"/>
		<rect x="25.932" y="16.566" fill="#161616" width="0.516" height="0.515"/>
		<rect x="27.424" y="16.566" fill="#161616" width="0.515" height="0.515"/>
	</g>
</g>
</svg>
