<svg width="1.5rem" viewBox="0 0 32 32" xmlns="http://www.w3.org/2000/svg">
	<path d="M26.938 20.038c0-0.275 0.075-0.538 0.206-0.762 0.038-0.069 0.087-0.131 0.131-0.194 1.087-1.625 1.725-3.569 1.725-5.644 0.019-5.763-4.844-10.438-10.856-10.438-5.244 0-9.619 3.569-10.644 8.306-0.15 0.694-0.231 1.4-0.231 2.138 0 5.769 4.675 10.569 10.688 10.569 0.956 0 2.244-0.288 2.95-0.481s1.406-0.45 1.587-0.519c0.181-0.069 0.381-0.106 0.581-0.106 0.225 0 0.438 0.044 0.631 0.125l3.544 1.256s0.15 0.063 0.244 0.063c0.275 0 0.5-0.219 0.5-0.5 0-0.063-0.031-0.169-0.031-0.169l-1.025-3.644z"></path>
	<path d="M19.906 24.531c-0.225 0.063-0.512 0.131-0.825 0.2-0.656 0.137-1.494 0.281-2.125 0.281-6.012 0-10.688-4.8-10.688-10.569 0-0.412 0.044-0.938 0.094-1.338 0.037-0.269 0.081-0.537 0.144-0.8 0.063-0.281 0.138-0.563 0.219-0.838l-0.5 0.444c-2.050 1.787-3.225 4.338-3.225 6.994 0 1.831 0.531 3.594 1.55 5.125 0.144 0.219 0.225 0.387 0.2 0.5s-0.744 3.875-0.744 3.875c-0.038 0.181 0.031 0.363 0.169 0.481 0.094 0.075 0.206 0.113 0.319 0.113 0.063 0 0.125-0.012 0.181-0.038l3.506-1.381c0.113-0.044 0.231-0.069 0.356-0.069 0 0 0.15-0.012 0.394 0.081 1.181 0.462 2.487 0.75 3.794 0.75 2.912 0 5.65-1.256 7.506-3.444 0 0 0.2-0.275 0.431-0.6-0.231 0.081-0.494 0.163-0.756 0.231z"></path>
</svg>
