<svg width="1.5rem" viewBox="0 0 32 32" xmlns="http://www.w3.org/2000/svg">
	<path d="M21 6c1.325 0 2.581 0.525 3.531 1.469s1.469 2.206 1.469 3.531v10c0 1.325-0.525 2.581-1.469 3.531s-2.206 1.469-3.531 1.469h-10c-1.325 0-2.581-0.525-3.531-1.469s-1.469-2.206-1.469-3.531v-10c0-1.325 0.525-2.581 1.469-3.531s2.206-1.469 3.531-1.469h10zM21 4h-10c-3.85 0-7 3.15-7 7v10c0 3.85 3.15 7 7 7h10c3.85 0 7-3.15 7-7v-10c0-3.85-3.15-7-7-7z"></path>
	<path d="M22.5 11c-0.831 0-1.5-0.669-1.5-1.5s0.669-1.5 1.5-1.5c0.825 0 1.5 0.669 1.5 1.5s-0.675 1.5-1.5 1.5zM16 12c2.206 0 4 1.794 4 4s-1.794 4-4 4-4-1.794-4-4 1.794-4 4-4zM16 10c-3.313 0-6 2.688-6 6s2.688 6 6 6 6-2.688 6-6-2.688-6-6-6z"></path>
</svg>
