<svg xmlns="http://www.w3.org/2000/svg" width="1.5rem" viewBox="0 0 159.67913 104.9758">
  <path d="m 79.52231,0 h 0.63281 c 28.266,0.79698 48.422,4.8282 60.469,12.094 12.703,7.6876 19.055,15.516 19.055,23.484 -1.6877,7.1719 -4.9455,10.758 -9.7734,10.758 -0.28141,6e-5 -0.5861,-0.02338 -0.91406,-0.07031 l -28.617,-9.8438 c -2.8126,-0.84368 -4.2189,-2.2734 -4.2188,-4.2891 -1.3e-4,-0.89055 0.28112,-1.9218 0.84375,-3.0938 3.1874,-3.328 4.7811,-5.7421 4.7812,-7.2422 -1.3e-4,-1.078 -0.79701,-1.6874 -2.3906,-1.8281 h -79.031 c -1.5938,0.14071 -2.3907,0.75008 -2.3906,1.8281 -4.8e-5,1.5001 1.5937,3.9141 4.7812,7.2422 0.56245,1.1251 0.8437,2.1563 0.84375,3.0938 -5.3e-5,2.0157 -1.4297,3.4454 -4.2891,4.2891 l -28.617,9.8438 C 10.35932,46.31262 10.05463,46.33606 9.7734,46.336 4.9921,46.33606 1.7343,42.7501 0,35.578 -9.9999882e-6,27.6093 6.375,19.781 19.125,12.094 31.125,4.9222 51.258,0.891 79.523,0 Z m 16.945,29.039 v -5.2734 h 10.125 v 10.687 c -1.2e-4,3.5157 5.6483,6.6094 16.945,9.2812 10.828,4.4532 16.242,13.383 16.242,26.789 v 34.453 h -119.88 v -34.453 c -3e-5,-13.406 5.4375,-22.336 16.312,-26.789 11.25,-2.6718 16.875,-5.7656 16.875,-9.2812 v -10.687 h 10.195 v 5.2734 h 33.188 z M 51.25631,67.5 c -6.2e-5,7.828201 2.7656,14.484001 8.2969,19.969001 5.5312,5.4844 12.164,8.2266 19.898,8.2266 7.8749,1e-5 14.555,-2.7422 20.039,-8.2266 5.4843,-5.4844 8.2264,-12.141 8.2266,-19.969001 -1.2e-4,-7.7812 -2.7306,-14.437 -8.1914,-19.969 -5.461,-5.5312 -12.152,-8.2968 -20.074,-8.2969 -7.8282,7e-5 -14.484,2.7657 -19.969,8.2969 -5.4844,5.5313 -8.2266,12.188 -8.2266,19.969 z m 44.016,-0.07032 c -1.1e-4,4.3594 -1.5353,8.086001 -4.6055,11.180001 -3.0704,3.0938 -6.8087,4.6406 -11.215,4.6406 -4.3595,2e-5 -8.0743,-1.5469 -11.145,-4.6406 -3.0704,-3.0937 -4.6055,-6.820301 -4.6055,-11.180001 -7.4e-5,-4.4531 1.5351,-8.2148 4.6055,-11.285 3.0702,-3.0703 6.7851,-4.6054 11.145,-4.6055 4.4062,5e-5 8.1444,1.5352 11.215,4.6055 3.0702,3.0704 4.6054,6.8321 4.6055,11.285 z m -11.18,-22.289 c -9e-5,1.0313 -0.37509,1.9454 -1.125,2.7422 -0.75009,0.79693 -1.6876,1.1954 -2.8125,1.1953 -1.0782,6e-5 -2.004,-0.39838 -2.7773,-1.1953 -0.77353,-0.79682 -1.1602,-1.7109 -1.1602,-2.7422 -9e-5,-1.1249 0.38663,-2.0859 1.1602,-2.8828 0.77335,-0.79681 1.6991,-1.1952 2.7773,-1.1953 1.1249,6e-5 2.0624,0.3985 2.8125,1.1953 0.74991,0.79694 1.1249,1.7579 1.125,2.8828 z m 0,44.227001 c -9e-5,1.125 -0.37509,2.0742 -1.125,2.8477 -0.75009,0.77345 -1.6876,1.1602 -2.8125,1.1602 -1.0782,1e-5 -2.004,-0.38671 -2.7773,-1.1602 -0.77353,-0.77342 -1.1602,-1.7226 -1.1602,-2.8477 -9e-5,-1.0781 0.38663,-2.0156 1.1602,-2.8125 0.77335,-0.79685 1.6991,-1.1953 2.7773,-1.1953 1.1249,2e-5 2.0624,0.39846 2.8125,1.1953 0.74991,0.7969 1.1249,1.7344 1.125,2.8125 z m -15.68,-43.875001 c 0.65617,0.09381 1.289,0.586 1.8984,1.4766 0.60929,0.89068 0.84367,1.875 0.70313,2.9531 -0.14071,1.0782 -0.65634,1.9219 -1.5469,2.5312 -0.8907,0.70318 -1.8751,0.97271 -2.9531,0.80859 -1.0782,-0.16401 -1.9454,-0.69135 -2.6016,-1.582 -0.65632,-0.93744 -0.8907,-1.9335 -0.70312,-2.9883 0.18743,-1.0546 0.72649,-1.9335 1.6172,-2.6367 0.70305,-0.46869 1.453,-0.70306 2.25,-0.70312 0.2343,6e-5 0.6796,0.04693 1.3359,0.14062 z m 27.914,37.266001 c 0.70301,0.89064 0.97254,1.875 0.80859,2.9531 -0.16417,1.0782 -0.71495,1.9688 -1.6523,2.6719 -0.70323,0.46876 -1.4532,0.70314 -2.25,0.70312 -0.23448,2e-5 -0.66808,-0.0469 -1.3008,-0.14062 -0.63291,-0.0937 -1.3009,-0.60936 -2.0039,-1.5469 -0.60948,-0.8906 -0.83213,-1.8633 -0.66797,-2.918 0.16396,-1.0547 0.69131,-1.9101 1.582,-2.5664 0.89052,-0.60935 1.8749,-0.84373 2.9531,-0.70313 1.078,0.14065 1.9218,0.65628 2.5312,1.5469 z m -36.07,-26.156001 c 1.1249,0.37505 1.9218,1.043 2.3906,2.0039 0.46868,0.96099 0.53899,1.9571 0.21094,2.9883 -0.3282,1.0313 -0.98445,1.793 -1.9688,2.2852 -0.98444,0.49223 -1.9923,0.5977 -3.0234,0.31641 -1.0313,-0.32809 -1.7579,-0.89058 -2.1797,-1.6875 -0.42194,-0.79683 -0.63288,-1.5 -0.63281,-2.1094 -6.5e-5,-0.42183 0.07025,-0.8437 0.21094,-1.2656 0.37494,-1.0312 1.0429,-1.7929 2.0039,-2.2852 0.96087,-0.49214 1.957,-0.57417 2.9883,-0.24609 z m 39.199,13.922 c 0.96083,-0.46871 1.9569,-0.53902 2.9883,-0.21093 1.0311,0.32816 1.746,0.89065 2.1445,1.6875 0.39833,0.7969 0.59754,1.500001 0.59766,2.109401 -1.2e-4,0.37503 -0.0704,0.77347 -0.21094,1.1953 -0.37511,1.0313 -1.0431,1.793 -2.0039,2.2852 -0.96105,0.49221 -1.9572,0.55081 -2.9883,0.17578 -1.0314,-0.3281 -1.7931,-0.97263 -2.2852,-1.9336 -0.4923,-0.96091 -0.57433,-1.9804 -0.24609,-3.058601 0.37489,-1.0312 1.0429,-1.7812 2.0039,-2.25 z m -43.77,1.4766 c 0.42181,-0.79685 1.1484,-1.3593 2.1797,-1.6875 1.0312,-0.32809 2.039,-0.25778 3.0234,0.21093 0.9843,0.46879 1.6406,1.2188 1.9688,2.25 0.32805,1.125001 0.25774,2.168001 -0.21094,3.128901 -0.46882,0.96097 -1.2188,1.6289 -2.25,2.0039 -1.1251,0.28127 -2.168,0.1758 -3.1289,-0.31641 -0.961,-0.49216 -1.629,-1.2539 -2.0039,-2.2852 -0.14069,-0.42184 -0.211,-0.82028 -0.21094,-1.1953 -6.5e-5,-0.60934 0.21087,-1.312501 0.63281,-2.109401 z m 44.297,-15.398 c 1.0311,-0.32808 2.0272,-0.24605 2.9883,0.24609 0.96082,0.49224 1.6288,1.254 2.0039,2.2852 0.14051,0.42192 0.21082,0.82036 0.21094,1.1953 -1.2e-4,0.60942 -0.19933,1.3008 -0.59766,2.0742 -0.39855,0.77348 -1.1134,1.3477 -2.1445,1.7227 -1.0314,0.32816 -2.0509,0.24613 -3.0586,-0.2461 -1.0079,-0.49214 -1.6524,-1.2539 -1.9336,-2.2852 -0.32824,-1.0312 -0.24621,-2.0273 0.24609,-2.9883 0.49208,-0.96089 1.2538,-1.6288 2.2852,-2.0039 z m -36.07,26.156001 c 0.65618,-0.84373 1.5234,-1.3476 2.6016,-1.5117 1.078,-0.16404 2.0624,0.0586 2.9531,0.66797 0.89054,0.65627 1.4296,1.5352 1.6172,2.6367 0.18742,1.1016 -0.0704,2.0508 -0.77344,2.8476 -0.60945,0.93752 -1.2423,1.4531 -1.8984,1.5469 -0.65633,0.0938 -1.1016,0.14064 -1.3359,0.14062 -0.79695,2e-5 -1.547,-0.23436 -2.25,-0.70312 -0.8907,-0.70311 -1.3946,-1.3828 -1.5117,-2.0391 -0.11726,-0.65623 -0.17585,-1.1016 -0.17578,-1.3359 -7.3e-5,-0.79686 0.25774,-1.5468 0.77344,-2.25 z m 26.016,-35.789001 c 0.70302,-0.89057 1.371,-1.3828 2.0039,-1.4766 0.63271,-0.09369 1.0663,-0.14056 1.3008,-0.14062 0.79677,6e-5 1.5468,0.23443 2.25,0.70312 0.93739,0.70319 1.453,1.3712 1.5469,2.0039 0.09364,0.63287 0.14052,1.043 0.14063,1.2305 -1.1e-4,0.8438 -0.28136,1.6407 -0.84375,2.3906 -0.60949,0.89068 -1.2306,1.3829 -1.8633,1.4766 -0.63291,0.0938 -1.0665,0.14067 -1.3008,0.14062 -0.84385,5e-5 -1.6173,-0.2812 -2.3203,-0.84375 -0.89072,-0.60932 -1.3829,-1.2421 -1.4766,-1.8984 -0.09385,-0.65619 -0.14073,-1.1015 -0.14063,-1.3359 -1e-4,-0.79682 0.23428,-1.5468 0.70313,-2.25 z" />
</svg>
