<svg width="1.5rem" viewBox="0 0 32 32" xmlns="http://www.w3.org/2000/svg">
	<path d="M27.719 26.262l-6.675-6.738c1.306-1.637 2.094-3.713 2.094-5.969 0-5.281-4.281-9.563-9.569-9.563s-9.569 4.287-9.569 9.569 4.281 9.563 9.569 9.563c2.287 0 4.381-0.8 6.031-2.137l6.631 6.694c0.2 0.212 0.475 0.319 0.744 0.319 0.256 0 0.512-0.094 0.706-0.281 0.413-0.394 0.425-1.044 0.038-1.456zM13.569 21.069c-2.006 0-3.894-0.781-5.313-2.2s-2.2-3.306-2.2-5.306c0-2.006 0.781-3.894 2.2-5.306 1.419-1.419 3.306-2.2 5.313-2.2s3.894 0.781 5.313 2.2c1.419 1.419 2.2 3.306 2.2 5.306 0 2.006-0.781 3.894-2.2 5.306-1.419 1.419-3.306 2.2-5.313 2.2z"></path>
</svg>
