<svg width="1.5rem" viewBox="0 0 24 24" xmlns="http://www.w3.org/2000/svg">
	<path d="M12 1C5.37 1 0 5.58 0 10.55c0 2.92 1.86 5.95 4.72 7.59L3 23l5.85-3.32c1.01.2 2.06.32 3.15.32 6.63 0 12-4.48 12-9.45C24 5.58 18.63 1 12 1zM6.55 13.8c-.53.47-1.24.7-2.14.7-.52 0-.97-.06-1.36-.17-.39-.11-.75-.26-1.09-.43v-1.84h.16c.34.33.71.58 1.12.76.41.18.8.26 1.19.26.1 0 .23-.01.38-.04.16-.02.29-.06.38-.11.12-.06.22-.14.3-.25.08-.1.12-.24.12-.42 0-.19-.07-.35-.2-.47s-.29-.21-.48-.26c-.23-.07-.47-.13-.73-.2a4.81 4.81 0 0 1-.73-.23c-.52-.21-.9-.49-1.12-.85-.23-.36-.34-.8-.34-1.34 0-.72.27-1.31.8-1.75.53-.45 1.2-.67 2-.67.4 0 .8.05 1.2.14.4.09.75.22 1.06.38v1.76h-.14c-.25-.23-.56-.44-.92-.61-.36-.17-.73-.26-1.11-.26a1.543 1.543 0 0 0-.77.18c-.11.06-.2.14-.27.25a.6.6 0 0 0-.12.36c0 .2.06.35.18.47s.36.22.71.31c.23.06.44.12.66.17.2.06.43.14.67.23.47.19.82.45 1.04.78.23.33.34.76.34 1.29 0 .78-.26 1.39-.79 1.86zm8.78.56h-1.68V9.24l-1.23 3.3h-1.16l-1.23-3.3v5.12H8.44V6.64h1.95l1.5 3.81 1.49-3.81h1.95v7.72zm5.85-.56c-.53.47-1.24.7-2.14.7-.52 0-.97-.06-1.36-.17-.39-.11-.75-.26-1.09-.43v-1.84h.16c.34.33.71.58 1.12.76.41.18.8.26 1.19.26.1 0 .23-.01.38-.04.16-.02.29-.06.38-.11.12-.06.22-.14.3-.25.08-.1.12-.24.12-.42 0-.19-.07-.35-.2-.47s-.29-.21-.48-.26c-.23-.07-.47-.13-.73-.2a4.81 4.81 0 0 1-.73-.23c-.52-.21-.9-.49-1.12-.85-.23-.36-.34-.8-.34-1.34 0-.72.27-1.31.8-1.75.53-.45 1.2-.67 2-.67.4 0 .8.05 1.2.14.4.09.75.22 1.06.38v1.76h-.15a3.23 3.23 0 0 0-.92-.62c-.36-.16-.73-.25-1.11-.25a1.543 1.543 0 0 0-.77.18c-.11.06-.2.14-.27.25-.08.11-.12.23-.12.37 0 .2.06.35.18.47s.36.22.71.31c.23.06.44.12.66.17.21.06.43.13.67.23.47.19.82.45 1.04.78.23.33.34.76.34 1.29.01.77-.26 1.38-.78 1.85z"/>
</svg>
