<svg width="1.5rem" viewBox="0 0 32 32" xmlns="http://www.w3.org/2000/svg">
	<path d="M28.938 12h-9.194l-2.794-8.338c-0.137-0.406-0.519-0.663-0.95-0.663s-0.813 0.256-0.95 0.663l-2.794 8.338h-9.256c-0.55 0-1 0.45-1 1 0 0.056 0.006 0.119 0.019 0.169 0.013 0.219 0.112 0.463 0.419 0.706l7.556 5.325-2.9 8.431c-0.144 0.406 0 0.863 0.344 1.125 0.181 0.131 0.35 0.244 0.563 0.244 0.206 0 0.45-0.106 0.625-0.225l7.375-5.256 7.375 5.256c0.175 0.125 0.419 0.225 0.625 0.225 0.212 0 0.381-0.106 0.556-0.244 0.35-0.262 0.488-0.712 0.344-1.125l-2.9-8.431 7.494-5.375 0.181-0.156c0.163-0.175 0.325-0.412 0.325-0.669 0-0.55-0.512-1-1.063-1z"></path>
</svg>
