<svg width="1.5rem" viewBox="0 0 32 32" xmlns="http://www.w3.org/2000/svg">
	<path d="M16 24.188c-0.531 0-0.963 0.431-0.963 0.962v2.887c0 0.531 0.431 0.962 0.963 0.962s0.962-0.431 0.962-0.962v-2.887c0-0.531-0.431-0.962-0.963-0.962zM16 3c-0.531 0-0.963 0.431-0.963 0.962v2.887c0 0.531 0.431 0.963 0.963 0.963s0.962-0.431 0.962-0.963v-2.888c0-0.531-0.431-0.962-0.963-0.962zM7.813 16c0-0.531-0.431-0.963-0.963-0.963h-2.888c-0.531 0-0.962 0.431-0.962 0.963s0.431 0.962 0.962 0.962h2.888c0.531 0 0.963-0.431 0.963-0.963zM28.038 15.037h-2.887c-0.531 0-0.962 0.431-0.962 0.963s0.431 0.962 0.962 0.962h2.887c0.531 0 0.962-0.431 0.962-0.963s-0.431-0.963-0.962-0.963zM9.531 21.506c-0.256 0-0.5 0.1-0.681 0.281l-2.044 2.044c-0.181 0.181-0.281 0.425-0.281 0.681s0.1 0.5 0.281 0.681c0.181 0.181 0.425 0.281 0.681 0.281s0.5-0.1 0.681-0.281l2.044-2.044c0.375-0.375 0.375-0.988 0-1.363-0.181-0.181-0.425-0.281-0.681-0.281zM22.469 10.494c0.256 0 0.5-0.1 0.681-0.281l2.044-2.044c0.181-0.181 0.281-0.425 0.281-0.681s-0.1-0.5-0.281-0.681c-0.181-0.181-0.425-0.281-0.681-0.281s-0.5 0.1-0.681 0.281l-2.044 2.044c-0.181 0.181-0.281 0.425-0.281 0.681s0.1 0.5 0.281 0.681c0.181 0.181 0.425 0.281 0.681 0.281zM8.169 6.806c-0.181-0.181-0.425-0.281-0.681-0.281s-0.5 0.1-0.681 0.281c-0.181 0.181-0.281 0.425-0.281 0.681s0.1 0.5 0.281 0.681l2.044 2.044c0.181 0.181 0.425 0.281 0.681 0.281s0.5-0.1 0.681-0.281c0.181-0.181 0.281-0.425 0.281-0.681s-0.1-0.5-0.281-0.681l-2.044-2.044zM23.15 21.788c-0.181-0.181-0.425-0.281-0.681-0.281s-0.5 0.1-0.681 0.281c-0.375 0.375-0.375 0.988 0 1.363l2.044 2.044c0.181 0.181 0.425 0.281 0.681 0.281s0.5-0.1 0.681-0.281c0.181-0.181 0.281-0.425 0.281-0.681s-0.1-0.5-0.281-0.681l-2.044-2.044zM16 10c-3.306 0-6 2.694-6 6s2.694 6 6 6 6-2.694 6-6-2.694-6-6-6z"></path>
</svg>
