<?xml version="1.0" encoding="UTF-8" standalone="no"?>
<svg xmlns:dc="http://purl.org/dc/elements/1.1/" xmlns:cc="http://creativecommons.org/ns#" xmlns:rdf="http://www.w3.org/1999/02/22-rdf-syntax-ns#" xmlns:svg="http://www.w3.org/2000/svg" xmlns="http://www.w3.org/2000/svg" width="19.158297" viewBox="0 0 19.158297 21.42647" version="1.1" id="svg4" height="21.42647">
    <metadata id="metadata10">
        <rdf:rdf>
            <cc:work rdf:about="">
                <dc:format>image/svg+xml</dc:format>
                <dc:type rdf:resource="http://purl.org/dc/dcmitype/StillImage"></dc:type>
                <dc:title></dc:title>
            </cc:work>
        </rdf:rdf>
    </metadata>
    <defs id="defs8">
        <mask maskUnits="userSpaceOnUse" id="mask-powermask-path-effect845">
            <path id="mask-powermask-path-effect845_box" style="fill:#ffffff;fill-opacity:1" d="m 28.382141,7.9535126 h 54.1862 V 52.638015 h -54.1862 z"></path>
            <path d="m 54.114708,33.040731 c 0,0 0.427,0.038 0.656,-0.247 l 0.448,-0.563 c 0.216,-0.28 0.738,-0.458 1.249,-0.174 0.676,0.382 1.55,0.982 2.149,1.541 0.33,0.278 0.407,0.688 0.182,1.121 l -0.002,0.009 c -0.232,0.408 -0.541,0.791 -0.932,1.148 l -0.009,0.006 c -0.44,0.367 -0.946,0.58 -1.487,0.404 l -0.01,-0.014 c -0.972,-0.275 -3.304,-1.464 -4.79,-2.649 -2.431,-1.918 -4.159,-5.082 -4.637,-6.778 l -0.015,-0.01 c -0.176,-0.543 0.039,-1.049 0.404,-1.488 l 0.007,-0.008 c 0.357,-0.391 0.739,-0.701 1.148,-0.932 l 0.009,-0.002 c 0.432,-0.225 0.842,-0.149 1.121,0.182 0.367,0.379 1.056,1.291 1.54,2.149 0.284,0.51 0.106,1.033 -0.173,1.248 l -0.564,0.448 c -0.284,0.23 -0.247,0.657 -0.247,0.657 0,0 0.834,3.156 3.953,3.952 z m 4.907,-2.616 c -0.167,0 -0.303,-0.135 -0.304,-0.302 -0.014,-1.83 -0.564,-3.288 -1.634,-4.332 -1.072,-1.045 -2.427,-1.581 -4.027,-1.592 -0.168,-10e-4 -0.303,-0.138 -0.301,-0.306 0.001,-0.167 0.136,-0.301 0.303,-0.301 h 0.002 c 1.762,0.012 3.258,0.606 4.447,1.764 1.19,1.162 1.802,2.765 1.817,4.763 10e-4,0.167 -0.133,0.304 -0.301,0.306 z m -1.595,-0.624 h -0.007 c -0.168,-0.004 -0.301,-0.143 -0.297,-0.31 0.024,-1.038 -0.273,-1.878 -0.906,-2.569 -0.63,-0.689 -1.495,-1.065 -2.645,-1.149 -0.167,-0.013 -0.293,-0.158 -0.281,-0.325 0.013,-0.167 0.158,-0.293 0.325,-0.281 1.294,0.095 2.32,0.548 3.049,1.345 0.733,0.8 1.092,1.807 1.065,2.992 -0.004,0.165 -0.139,0.297 -0.303,0.297 z m -1.558,-0.522 c -0.161,0 -0.295,-0.126 -0.303,-0.289 -0.051,-1.03 -0.537,-1.534 -1.527,-1.588 -0.168,-0.009 -0.296,-0.152 -0.287,-0.319 0.009,-0.168 0.151,-0.296 0.319,-0.287 1.308,0.07 2.034,0.819 2.101,2.164 0.009,0.167 -0.12,0.31 -0.288,0.318 z m 6.817,3.469 c -0.605,4.877 -4.172,5.185 -4.83,5.396 -0.28,0.09 -2.882,0.737 -6.152,0.524 0,0 -2.438,2.94 -3.199,3.705 -0.119,0.119 -0.258,0.167 -0.352,0.145 -0.131,-0.032 -0.167,-0.188 -0.165,-0.414 l 0.02,-4.016 v -10e-4 c -4.762,-1.323 -4.485,-6.295 -4.431,-8.898 0.054,-2.603 0.543,-4.736 1.996,-6.17 2.61,-2.364 7.987,-2.011 7.987,-2.011 4.541,0.02 6.717,1.387 7.222,1.845 1.675,1.434 2.528,4.867 1.904,9.895 z m -0.652,-11.113 c -0.597,-0.548 -3.007,-2.298 -8.375,-2.322 0,0 -6.33,-0.382 -9.416,2.45 -1.718,1.718 -2.322,4.231 -2.386,7.348 -0.063,3.118 -0.146,8.958 5.484,10.542 l 0.006,0.002 -0.004,2.416 c 0,0 -0.035,0.979 0.609,1.179 0.779,0.241 1.236,-0.502 1.981,-1.304 0.408,-0.44 0.971,-1.086 1.397,-1.58 3.851,0.322 6.812,-0.417 7.149,-0.526 0.777,-0.253 5.177,-0.816 5.893,-6.657 0.738,-6.022 -0.358,-9.83 -2.338,-11.548 z" id="path843"></path>
        </mask>
        <filter id="mask-powermask-path-effect845_inverse" style="color-interpolation-filters:sRGB" height="100" width="100" x="-50" y="-50">
            <feColorMatrix id="mask-powermask-path-effect845_primitive1" values="1" type="saturate" result="fbSourceGraphic"></feColorMatrix>
            <feColorMatrix id="mask-powermask-path-effect845_primitive2" values="-1 0 0 0 1 0 -1 0 0 1 0 0 -1 0 1 0 0 0 1 0 " in="fbSourceGraphic"></feColorMatrix>
        </filter>
    </defs>
    <path style="fill:#2100fe;fill-opacity:1;stroke:#503151;stroke-width:0;stroke-miterlimit:4;stroke-dasharray:none;paint-order:markers stroke fill" d="m 4.4135122,21.22828 c -0.04183,-0.109004 -0.03901,-1.095787 0.0063,-2.192852 0.07781,-1.88575 0.06886,-1.999267 -0.163883,-2.078961 -2.164219,-0.741044 -3.43941001,-2.171873 -4.01925601,-4.509812 -0.318549,-1.284389 -0.314703,-5.3610895 0.0065,-6.9125175 0.580227,-2.802344 1.94414601,-4.256797 4.71077801,-5.02346995 2.913828,-0.807463 7.7404978,-0.636955 10.3919898,0.36711 2.328027,0.88157595 3.396403,2.61518095 3.742028,6.07201295 0.178632,1.786636 0.0017,4.7243195 -0.358337,5.9490845 -0.50147,1.705959 -1.488826,2.942672 -2.854981,3.576004 -1.233983,0.572061 -3.38303,0.967679 -5.74667,1.057906 l -2.1509188,0.08211 -1.629824,1.905788 c -0.896403,1.048183 -1.681085,1.905787 -1.743737,1.905787 -0.06265,0 -0.148136,-0.08918 -0.189964,-0.198186 z m 9.3253458,-6.057652 c 0.402769,-0.211439 1.220443,-1.04273 1.431874,-1.455722 0.37587,-0.734192 -0.02623,-1.297569 -1.6967,-2.377248 -1.058438,-0.684102 -1.508509,-0.681831 -2.130248,0.01075 -0.321959,0.358641 -0.569796,0.516824 -0.809748,0.516824 -0.6038978,0 -1.8818128,-0.742643 -2.5658908,-1.491134 -0.610327,-0.6677955 -1.438934,-2.0930785 -1.438934,-2.4751045 0,-0.0979 0.261642,-0.432278 0.581427,-0.743073 0.760897,-0.739508 0.758976,-1.047941 -0.01377,-2.211461 -0.875391,-1.318064 -1.31126,-1.736025 -1.810411,-1.736025 -0.799556,0 -2.116596,1.300845 -2.116596,2.09057 0,1.017406 1.471111,3.79198 2.971736,5.6048125 1.252319,1.512867 3.365509,3.011002 5.6605838,4.013043 1.101944,0.481115 1.423383,0.523235 1.936681,0.253772 z m 1.938114,-6.4241985 c 0.05351,-0.824506 -0.288077,-2.198043 -0.772815,-3.107503 -0.438941,-0.823539 -1.636223,-2.024789 -2.413147,-2.421146 -0.69728,-0.355726 -1.789303,-0.642721 -2.6024448,-0.683951 -0.681479,-0.03455 -0.710632,-0.02278 -0.710632,0.286983 0,0.265717 0.06876,0.328644 0.387617,0.354748 1.6447768,0.134652 2.9772908,0.753687 3.9998558,1.858179 0.804216,0.86865 1.185562,1.756013 1.365894,3.178338 0.138619,1.093308 0.195419,1.228367 0.492865,1.171928 0.15534,-0.02947 0.224692,-0.204381 0.252807,-0.637576 z m -1.54786,-0.478293 c 0.02275,-0.23735 -0.07776,-0.823716 -0.223351,-1.303036 -0.484445,-1.594929 -1.815135,-2.665011 -3.504545,-2.818201 -0.7740968,-0.07019 -0.7929138,-0.06447 -0.7502358,0.228086 0.03641,0.249576 0.168605,0.328334 0.7854048,0.467915 0.407896,0.09231 0.967474,0.283047 1.243505,0.423868 0.94994,0.484623 1.689338,1.677266 1.694398,2.733048 0.0032,0.671759 0.07599,0.791118 0.449741,0.737618 0.19492,-0.0279 0.274519,-0.150344 0.305083,-0.469298 z m -1.629337,-0.659885 c -0.06717,-1.028958 -0.663903,-1.681068 -1.719519,-1.879103 -0.336096,-0.06305 -0.500503,-0.03198 -0.625084,0.118129 -0.2073648,0.24986 0.01735,0.591301 0.389164,0.591301 0.666999,0 1.282318,0.637581 1.282318,1.328712 0,0.387173 0.112414,0.501201 0.446904,0.45332 0.227094,-0.03251 0.258518,-0.11757 0.226217,-0.612359 z" id="path867"></path>
	</svg>
	
