<svg xmlns="http://www.w3.org/2000/svg" width="19.158297" viewBox="0 0 19.158297 21.42647" height="21.42647">
	<path d="m 4.4135122,21.22828 c -0.04183,-0.109004 -0.03901,-1.095787 0.0063,-2.192852 0.07781,-1.88575 0.06886,-1.999267 -0.163883,-2.078961 -2.164219,-0.741044 -3.43941001,-2.171873 -4.01925601,-4.509812 -0.318549,-1.284389 -0.314703,-5.3610895 0.0065,-6.9125175 0.580227,-2.802344 1.94414601,-4.256797 4.71077801,-5.02346995 2.913828,-0.807463 7.7404978,-0.636955 10.3919898,0.36711 2.328027,0.88157595 3.396403,2.61518095 3.742028,6.07201295 0.178632,1.786636 0.0017,4.7243195 -0.358337,5.9490845 -0.50147,1.705959 -1.488826,2.942672 -2.854981,3.576004 -1.233983,0.572061 -3.38303,0.967679 -5.74667,1.057906 l -2.1509188,0.08211 -1.629824,1.905788 c -0.896403,1.048183 -1.681085,1.905787 -1.743737,1.905787 -0.06265,0 -0.148136,-0.08918 -0.189964,-0.198186 z m 9.3253458,-6.057652 c 0.402769,-0.211439 1.220443,-1.04273 1.431874,-1.455722 0.37587,-0.734192 -0.02623,-1.297569 -1.6967,-2.377248 -1.058438,-0.684102 -1.508509,-0.681831 -2.130248,0.01075 -0.321959,0.358641 -0.569796,0.516824 -0.809748,0.516824 -0.6038978,0 -1.8818128,-0.742643 -2.5658908,-1.491134 -0.610327,-0.6677955 -1.438934,-2.0930785 -1.438934,-2.4751045 0,-0.0979 0.261642,-0.432278 0.581427,-0.743073 0.760897,-0.739508 0.758976,-1.047941 -0.01377,-2.211461 -0.875391,-1.318064 -1.31126,-1.736025 -1.810411,-1.736025 -0.799556,0 -2.116596,1.300845 -2.116596,2.09057 0,1.017406 1.471111,3.79198 2.971736,5.6048125 1.252319,1.512867 3.365509,3.011002 5.6605838,4.013043 1.101944,0.481115 1.423383,0.523235 1.936681,0.253772 z m 1.938114,-6.4241985 c 0.05351,-0.824506 -0.288077,-2.198043 -0.772815,-3.107503 -0.438941,-0.823539 -1.636223,-2.024789 -2.413147,-2.421146 -0.69728,-0.355726 -1.789303,-0.642721 -2.6024448,-0.683951 -0.681479,-0.03455 -0.710632,-0.02278 -0.710632,0.286983 0,0.265717 0.06876,0.328644 0.387617,0.354748 1.6447768,0.134652 2.9772908,0.753687 3.9998558,1.858179 0.804216,0.86865 1.185562,1.756013 1.365894,3.178338 0.138619,1.093308 0.195419,1.228367 0.492865,1.171928 0.15534,-0.02947 0.224692,-0.204381 0.252807,-0.637576 z m -1.54786,-0.478293 c 0.02275,-0.23735 -0.07776,-0.823716 -0.223351,-1.303036 -0.484445,-1.594929 -1.815135,-2.665011 -3.504545,-2.818201 -0.7740968,-0.07019 -0.7929138,-0.06447 -0.7502358,0.228086 0.03641,0.249576 0.168605,0.328334 0.7854048,0.467915 0.407896,0.09231 0.967474,0.283047 1.243505,0.423868 0.94994,0.484623 1.689338,1.677266 1.694398,2.733048 0.0032,0.671759 0.07599,0.791118 0.449741,0.737618 0.19492,-0.0279 0.274519,-0.150344 0.305083,-0.469298 z m -1.629337,-0.659885 c -0.06717,-1.028958 -0.663903,-1.681068 -1.719519,-1.879103 -0.336096,-0.06305 -0.500503,-0.03198 -0.625084,0.118129 -0.2073648,0.24986 0.01735,0.591301 0.389164,0.591301 0.666999,0 1.282318,0.637581 1.282318,1.328712 0,0.387173 0.112414,0.501201 0.446904,0.45332 0.227094,-0.03251 0.258518,-0.11757 0.226217,-0.612359 z" id="path867"></path>
</svg>
	
